<svg width="402" height="234" viewBox="0 0 402 234" fill="none" xmlns="http://www.w3.org/2000/svg">
<rect x="16" y="211.041" width="6" height="9" rx="3" fill="#FF5F00"/>
<rect x="29.4814" y="126.875" width="6" height="93.1662" rx="3" fill="#FF5F00"/>
<rect x="42.963" y="196.058" width="6" height="23.9834" rx="3" fill="#FF5F00"/>
<rect x="56.4445" y="174.842" width="6" height="45.1994" rx="3" fill="#FF5F00"/>
<rect x="69.9259" y="150.858" width="6" height="69.1828" rx="3" fill="#FF5F00"/>
<rect x="83.4075" y="196.058" width="6" height="23.9834" rx="3" fill="#FF5F00"/>
<rect x="96.8889" y="196.058" width="6" height="23.9834" rx="3" fill="#FF5F00"/>
<rect x="110.37" y="32.041" width="6" height="188" rx="3" fill="#FF5F00"/>
<rect x="123.852" y="163.772" width="6" height="56.2687" rx="3" fill="#FF5F00"/>
<rect x="137.333" y="113.961" width="6" height="106.08" rx="3" fill="#FF5F00"/>
<rect x="150.815" y="206.204" width="6" height="13.8366" rx="3" fill="#2AE881"/>
<rect x="164.296" y="206.204" width="6" height="13.8366" rx="3" fill="#2AE881"/>
<rect x="177.778" y="163.772" width="6" height="56.2687" rx="3" fill="#FF5F00"/>
<rect x="191.259" y="196.058" width="6" height="23.9834" rx="3" fill="#FF5F00"/>
<rect x="204.741" y="82.5978" width="6" height="137.443" rx="3" fill="#FF5F00"/>
<rect x="218.222" y="196.058" width="6" height="23.9834" rx="3" fill="#FF5F00"/>
<rect x="231.704" y="196.058" width="6" height="23.9834" rx="3" fill="#FF5F00"/>
<rect x="245.185" y="180.376" width="6" height="39.6648" rx="3" fill="#FF5F00"/>
<rect x="258.667" y="206.204" width="6" height="13.8366" rx="3" fill="#2AE881"/>
<rect x="272.148" y="206.204" width="6" height="13.8366" rx="3" fill="#2AE881"/>
<rect x="285.63" y="206.204" width="6" height="13.8366" rx="3" fill="#2AE881"/>
<rect x="299.111" y="206.204" width="6" height="13.8366" rx="3" fill="#2AE881"/>
<rect x="312.593" y="206.204" width="6" height="13.8366" rx="3" fill="#2AE881"/>
<rect x="326.074" y="206.204" width="6" height="13.8366" rx="3" fill="#2AE881"/>
<rect x="339.555" y="196.058" width="6" height="23.9834" rx="3" fill="#FF5F00"/>
<rect x="353.037" y="196.058" width="6" height="23.9834" rx="3" fill="#FF5F00"/>
<rect x="366.518" y="196.058" width="6" height="23.9834" rx="3" fill="#FF5F00"/>
<rect x="380" y="196.058" width="6" height="23.9834" rx="3" fill="#FF5F00"/>
<path opacity="0.9" d="M362.415 232.041V231.496L364.559 229.176C365.368 228.301 365.605 227.972 365.605 227.418V227.409C365.605 226.741 365.152 226.24 364.405 226.24C363.645 226.24 363.14 226.737 363.14 227.484L363.135 227.493L362.379 227.488L362.371 227.484C362.375 226.359 363.245 225.55 364.458 225.55C365.565 225.55 366.414 226.302 366.414 227.326V227.334C366.414 228.06 366.102 228.587 364.955 229.769L363.513 231.259V231.329H366.519V232.041H362.415ZM370.013 232.146C368.668 232.146 367.71 231.391 367.71 230.327V230.318C367.71 229.536 368.259 228.886 369.072 228.697V228.679C368.378 228.464 367.938 227.937 367.938 227.269V227.26C367.938 226.302 368.813 225.594 370.013 225.594C371.212 225.594 372.087 226.302 372.087 227.26V227.269C372.087 227.937 371.647 228.464 370.953 228.679V228.697C371.766 228.886 372.315 229.536 372.315 230.318V230.327C372.315 231.391 371.357 232.146 370.013 232.146ZM370.013 228.385C370.777 228.385 371.3 227.95 371.3 227.334V227.326C371.3 226.71 370.777 226.275 370.013 226.275C369.248 226.275 368.725 226.71 368.725 227.326V227.334C368.725 227.95 369.248 228.385 370.013 228.385ZM370.013 231.457C370.887 231.457 371.511 230.964 371.511 230.279V230.27C371.511 229.576 370.892 229.079 370.013 229.079C369.134 229.079 368.514 229.576 368.514 230.27V230.279C368.514 230.964 369.138 231.457 370.013 231.457ZM373.915 232.085C373.603 232.085 373.344 231.826 373.344 231.514C373.344 231.197 373.603 230.942 373.915 230.942C374.231 230.942 374.486 231.197 374.486 231.514C374.486 231.826 374.231 232.085 373.915 232.085ZM377.729 232.19C376.328 232.19 375.493 230.912 375.493 228.873V228.864C375.493 226.825 376.328 225.55 377.729 225.55C379.131 225.55 379.975 226.825 379.975 228.864V228.873C379.975 230.912 379.131 232.19 377.729 232.19ZM377.729 231.5C378.639 231.5 379.18 230.49 379.18 228.873V228.864C379.18 227.247 378.639 226.245 377.729 226.245C376.82 226.245 376.288 227.247 376.288 228.864V228.873C376.288 230.49 376.82 231.5 377.729 231.5ZM381.276 232.041V231.496L383.42 229.176C384.229 228.301 384.466 227.972 384.466 227.418V227.409C384.466 226.741 384.014 226.24 383.267 226.24C382.506 226.24 382.001 226.737 382.001 227.484L381.997 227.493L381.241 227.488L381.232 227.484C381.236 226.359 382.106 225.55 383.319 225.55C384.427 225.55 385.275 226.302 385.275 227.326V227.334C385.275 228.06 384.963 228.587 383.816 229.769L382.374 231.259V231.329H385.38V232.041H381.276Z" fill="black"/>
<path opacity="0.9" d="M192.304 232.041V226.579H192.234L190.621 227.748V226.913L192.309 225.7H193.095V232.041H192.304ZM197.824 232.041V230.727H194.735V230.006C195.591 228.569 196.563 227.022 197.45 225.7H198.597V230.02H199.498V230.727H198.597V232.041H197.824ZM195.543 230.024H197.828V226.434H197.776C197.064 227.497 196.233 228.807 195.543 229.971V230.024ZM201.041 232.085C200.729 232.085 200.469 231.826 200.469 231.514C200.469 231.197 200.729 230.942 201.041 230.942C201.357 230.942 201.612 231.197 201.612 231.514C201.612 231.826 201.357 232.085 201.041 232.085ZM204.855 232.19C203.453 232.19 202.618 230.912 202.618 228.873V228.864C202.618 226.825 203.453 225.55 204.855 225.55C206.257 225.55 207.101 226.825 207.101 228.864V228.873C207.101 230.912 206.257 232.19 204.855 232.19ZM204.855 231.5C205.765 231.5 206.305 230.49 206.305 228.873V228.864C206.305 227.247 205.765 226.245 204.855 226.245C203.945 226.245 203.414 227.247 203.414 228.864V228.873C203.414 230.49 203.945 231.5 204.855 231.5ZM209.953 232.041V226.579H209.883L208.27 227.748V226.913L209.957 225.7H210.744V232.041H209.953Z" fill="black"/>
<path opacity="0.9" d="M18.8301 232.19C17.4282 232.19 16.5933 230.912 16.5933 228.873V228.864C16.5933 226.825 17.4282 225.55 18.8301 225.55C20.2319 225.55 21.0757 226.825 21.0757 228.864V228.873C21.0757 230.912 20.2319 232.19 18.8301 232.19ZM18.8301 231.5C19.7397 231.5 20.2803 230.49 20.2803 228.873V228.864C20.2803 227.247 19.7397 226.245 18.8301 226.245C17.9204 226.245 17.3887 227.247 17.3887 228.864V228.873C17.3887 230.49 17.9204 231.5 18.8301 231.5ZM23.9277 232.041V226.579H23.8574L22.2446 227.748V226.913L23.9321 225.7H24.7188V232.041H23.9277ZM26.96 232.085C26.6479 232.085 26.3887 231.826 26.3887 231.514C26.3887 231.197 26.6479 230.942 26.96 230.942C27.2764 230.942 27.5312 231.197 27.5312 231.514C27.5312 231.826 27.2764 232.085 26.96 232.085ZM30.7744 232.19C29.3726 232.19 28.5376 230.912 28.5376 228.873V228.864C28.5376 226.825 29.3726 225.55 30.7744 225.55C32.1763 225.55 33.02 226.825 33.02 228.864V228.873C33.02 230.912 32.1763 232.19 30.7744 232.19ZM30.7744 231.5C31.6841 231.5 32.2246 230.49 32.2246 228.873V228.864C32.2246 227.247 31.6841 226.245 30.7744 226.245C29.8647 226.245 29.333 227.247 29.333 228.864V228.873C29.333 230.49 29.8647 231.5 30.7744 231.5ZM34.3208 232.041V231.496L36.4653 229.176C37.2739 228.301 37.5112 227.972 37.5112 227.418V227.409C37.5112 226.741 37.0586 226.24 36.3115 226.24C35.5513 226.24 35.0459 226.737 35.0459 227.484L35.0415 227.493L34.2856 227.488L34.2769 227.484C34.2812 226.359 35.1514 225.55 36.3643 225.55C37.4717 225.55 38.3198 226.302 38.3198 227.326V227.334C38.3198 228.06 38.0078 228.587 36.8608 229.769L35.4194 231.259V231.329H38.4253V232.041H34.3208Z" fill="black"/>
</svg>
